<svg width="200" height="55" viewBox="0 0 200 55" fill="none" xmlns="http://www.w3.org/2000/svg">
<rect x="0.5" y="0.5" width="199" height="54" rx="16.5" fill="white" stroke="black"/>
<path d="M65.4517 35L71.1267 17H75.5392L81.2142 35H78.1142L72.9642 18.85H73.6392L68.5517 35H65.4517ZM68.6142 31.1V28.2875H78.0642V31.1H68.6142ZM88.9616 35.375C87.645 35.375 86.5408 35.0625 85.6491 34.4375C84.7575 33.8125 84.0866 32.9625 83.6366 31.8875C83.1866 30.8042 82.9616 29.5917 82.9616 28.25C82.9616 26.8917 83.1866 25.675 83.6366 24.6C84.0866 23.525 84.745 22.6792 85.6116 22.0625C86.4866 21.4375 87.5658 21.125 88.8491 21.125C90.1241 21.125 91.2283 21.4375 92.1616 22.0625C93.1033 22.6792 93.8325 23.525 94.3491 24.6C94.8658 25.6667 95.1241 26.8833 95.1241 28.25C95.1241 29.6 94.87 30.8125 94.3616 31.8875C93.8533 32.9625 93.1366 33.8125 92.2116 34.4375C91.2866 35.0625 90.2033 35.375 88.9616 35.375ZM82.4491 35V17H85.4866V25.525H85.1116V35H82.4491ZM88.4991 32.675C89.2825 32.675 89.9283 32.4792 90.4366 32.0875C90.945 31.6958 91.32 31.1667 91.5616 30.5C91.8116 29.825 91.9366 29.075 91.9366 28.25C91.9366 27.4333 91.8116 26.6917 91.5616 26.025C91.3116 25.35 90.9241 24.8167 90.3991 24.425C89.8741 24.025 89.2075 23.825 88.3991 23.825C87.6325 23.825 87.0075 24.0125 86.5241 24.3875C86.0408 24.7542 85.6825 25.2708 85.4491 25.9375C85.2241 26.5958 85.1116 27.3667 85.1116 28.25C85.1116 29.125 85.2241 29.8958 85.4491 30.5625C85.6825 31.2292 86.045 31.75 86.5366 32.125C87.0366 32.4917 87.6908 32.675 88.4991 32.675ZM102.842 35.375C101.492 35.375 100.313 35.0708 99.3044 34.4625C98.2961 33.8542 97.5127 33.0167 96.9544 31.95C96.4044 30.875 96.1294 29.6417 96.1294 28.25C96.1294 26.8333 96.4127 25.5917 96.9794 24.525C97.5461 23.4583 98.3336 22.625 99.3419 22.025C100.35 21.425 101.517 21.125 102.842 21.125C104.2 21.125 105.384 21.4292 106.392 22.0375C107.4 22.6458 108.184 23.4875 108.742 24.5625C109.3 25.6292 109.579 26.8583 109.579 28.25C109.579 29.65 109.296 30.8875 108.729 31.9625C108.171 33.0292 107.388 33.8667 106.379 34.475C105.371 35.075 104.192 35.375 102.842 35.375ZM102.842 32.55C104.042 32.55 104.934 32.15 105.517 31.35C106.1 30.55 106.392 29.5167 106.392 28.25C106.392 26.9417 106.096 25.9 105.504 25.125C104.913 24.3417 104.025 23.95 102.842 23.95C102.034 23.95 101.367 24.1333 100.842 24.5C100.325 24.8583 99.9419 25.3625 99.6919 26.0125C99.4419 26.6542 99.3169 27.4 99.3169 28.25C99.3169 29.5583 99.6127 30.6042 100.204 31.3875C100.804 32.1625 101.684 32.55 102.842 32.55ZM116.396 35.3875C115.396 35.3875 114.571 35.2208 113.921 34.8875C113.271 34.5542 112.754 34.1292 112.371 33.6125C111.988 33.0958 111.704 32.5458 111.521 31.9625C111.338 31.3792 111.217 30.8292 111.158 30.3125C111.108 29.7875 111.083 29.3625 111.083 29.0375V21.5H114.133V28C114.133 28.4167 114.163 28.8875 114.221 29.4125C114.279 29.9292 114.413 30.4292 114.621 30.9125C114.838 31.3875 115.154 31.7792 115.571 32.0875C115.996 32.3958 116.567 32.55 117.283 32.55C117.667 32.55 118.046 32.4875 118.421 32.3625C118.796 32.2375 119.133 32.025 119.433 31.725C119.742 31.4167 119.988 30.9958 120.171 30.4625C120.354 29.9292 120.446 29.2542 120.446 28.4375L122.233 29.2C122.233 30.35 122.008 31.3917 121.558 32.325C121.117 33.2583 120.463 34.0042 119.596 34.5625C118.729 35.1125 117.663 35.3875 116.396 35.3875ZM120.808 35V30.8125H120.446V21.5H123.471V35H120.808ZM133.895 35C133.004 35.1667 132.129 35.2375 131.27 35.2125C130.42 35.1958 129.658 35.0417 128.983 34.75C128.308 34.45 127.795 33.9792 127.445 33.3375C127.137 32.7542 126.975 32.1583 126.958 31.55C126.941 30.9417 126.933 30.2542 126.933 29.4875V17.75H129.933V29.3125C129.933 29.8542 129.937 30.3292 129.945 30.7375C129.962 31.1458 130.05 31.4792 130.208 31.7375C130.508 32.2375 130.987 32.5167 131.645 32.575C132.304 32.6333 133.054 32.6 133.895 32.475V35ZM124.483 23.8625V21.5H133.895V23.8625H124.483Z" fill="#2A2A32"/>
</svg>
