<svg width="200" height="78" viewBox="0 0 200 78" fill="none" xmlns="http://www.w3.org/2000/svg">
<rect x="0.5" y="21.5" width="199" height="54" rx="16.5" fill="white" stroke="black"/>
<path d="M40.425 64.375C39.675 64.375 38.9542 64.2583 38.2625 64.025C37.5792 63.7917 36.9625 63.4542 36.4125 63.0125C35.8625 62.5792 35.4125 62.0542 35.0625 61.4375L37.8375 60.0625C38.0958 60.5542 38.4583 60.9167 38.925 61.15C39.4 61.3917 39.9042 61.5125 40.4375 61.5125C41.0625 61.5125 41.6208 61.4 42.1125 61.175C42.6042 60.9583 42.9833 60.6333 43.25 60.2C43.525 59.775 43.6542 59.2417 43.6375 58.6V54.7625H44.0125V44.5H46.65V58.65C46.65 58.9917 46.6333 59.3167 46.6 59.625C46.575 59.9417 46.5292 60.25 46.4625 60.55C46.2625 61.425 45.8792 62.1417 45.3125 62.7C44.7458 63.2667 44.0417 63.6875 43.2 63.9625C42.3667 64.2375 41.4417 64.375 40.425 64.375ZM40.1625 58.375C38.9208 58.375 37.8375 58.0625 36.9125 57.4375C35.9875 56.8125 35.2708 55.9625 34.7625 54.8875C34.2542 53.8125 34 52.6 34 51.25C34 49.8833 34.2542 48.6667 34.7625 47.6C35.2792 46.525 36.0083 45.6792 36.95 45.0625C37.8917 44.4375 39 44.125 40.275 44.125C41.5583 44.125 42.6333 44.4375 43.5 45.0625C44.375 45.6792 45.0375 46.525 45.4875 47.6C45.9375 48.675 46.1625 49.8917 46.1625 51.25C46.1625 52.5917 45.9375 53.8042 45.4875 54.8875C45.0375 55.9625 44.3667 56.8125 43.475 57.4375C42.5833 58.0625 41.4792 58.375 40.1625 58.375ZM40.625 55.675C41.4333 55.675 42.0833 55.4917 42.575 55.125C43.075 54.75 43.4375 54.2292 43.6625 53.5625C43.8958 52.8958 44.0125 52.125 44.0125 51.25C44.0125 50.3667 43.8958 49.5958 43.6625 48.9375C43.4375 48.2708 43.0833 47.7542 42.6 47.3875C42.1167 47.0125 41.4917 46.825 40.725 46.825C39.9167 46.825 39.25 47.025 38.725 47.425C38.2 47.8167 37.8125 48.35 37.5625 49.025C37.3125 49.6917 37.1875 50.4333 37.1875 51.25C37.1875 52.075 37.3083 52.825 37.55 53.5C37.8 54.1667 38.1792 54.6958 38.6875 55.0875C39.1958 55.4792 39.8417 55.675 40.625 55.675ZM55.2928 58.375C53.9261 58.375 52.7261 58.0792 51.6928 57.4875C50.6594 56.8958 49.8511 56.075 49.2678 55.025C48.6928 53.975 48.4053 52.7667 48.4053 51.4C48.4053 49.925 48.6886 48.6458 49.2553 47.5625C49.8219 46.4708 50.6094 45.625 51.6178 45.025C52.6261 44.425 53.7928 44.125 55.1178 44.125C56.5178 44.125 57.7053 44.4542 58.6803 45.1125C59.6636 45.7625 60.3928 46.6833 60.8678 47.875C61.3428 49.0667 61.5219 50.4708 61.4053 52.0875H58.4178V50.9875C58.4094 49.5208 58.1511 48.45 57.6428 47.775C57.1344 47.1 56.3344 46.7625 55.2428 46.7625C54.0094 46.7625 53.0928 47.1458 52.4928 47.9125C51.8928 48.6708 51.5928 49.7833 51.5928 51.25C51.5928 52.6167 51.8928 53.675 52.4928 54.425C53.0928 55.175 53.9678 55.55 55.1178 55.55C55.8594 55.55 56.4969 55.3875 57.0303 55.0625C57.5719 54.7292 57.9886 54.25 58.2803 53.625L61.2553 54.525C60.7386 55.7417 59.9386 56.6875 58.8553 57.3625C57.7803 58.0375 56.5928 58.375 55.2928 58.375ZM50.6428 52.0875V49.8125H59.9303V52.0875H50.6428ZM71.1068 58C70.2152 58.1667 69.3402 58.2375 68.4818 58.2125C67.6318 58.1958 66.8693 58.0417 66.1943 57.75C65.5193 57.45 65.0068 56.9792 64.6568 56.3375C64.3485 55.7542 64.186 55.1583 64.1693 54.55C64.1527 53.9417 64.1443 53.2542 64.1443 52.4875V40.75H67.1443V52.3125C67.1443 52.8542 67.1485 53.3292 67.1568 53.7375C67.1735 54.1458 67.261 54.4792 67.4193 54.7375C67.7193 55.2375 68.1985 55.5167 68.8568 55.575C69.5152 55.6333 70.2652 55.6 71.1068 55.475V58ZM61.6943 46.8625V44.5H71.1068V46.8625H61.6943ZM82.2271 58.375C80.5605 58.375 79.2063 58 78.1646 57.25C77.123 56.5 76.4896 55.4458 76.2646 54.0875L79.3396 53.6125C79.498 54.2792 79.848 54.8042 80.3896 55.1875C80.9313 55.5708 81.6146 55.7625 82.4396 55.7625C83.1646 55.7625 83.723 55.6208 84.1146 55.3375C84.5146 55.0458 84.7146 54.65 84.7146 54.15C84.7146 53.8417 84.6396 53.5958 84.4896 53.4125C84.348 53.2208 84.0313 53.0375 83.5396 52.8625C83.048 52.6875 82.2938 52.4667 81.2771 52.2C80.1438 51.9 79.2438 51.5792 78.5771 51.2375C77.9105 50.8875 77.4313 50.475 77.1396 50C76.848 49.525 76.7021 48.95 76.7021 48.275C76.7021 47.4333 76.923 46.7 77.3646 46.075C77.8063 45.45 78.423 44.9708 79.2146 44.6375C80.0063 44.2958 80.9396 44.125 82.0146 44.125C83.0646 44.125 83.9938 44.2875 84.8021 44.6125C85.6188 44.9375 86.2771 45.4 86.7771 46C87.2771 46.6 87.5855 47.3042 87.7021 48.1125L84.6271 48.6625C84.5521 48.0875 84.2896 47.6333 83.8396 47.3C83.398 46.9667 82.8063 46.7792 82.0646 46.7375C81.3563 46.6958 80.7855 46.8042 80.3521 47.0625C79.9188 47.3125 79.7021 47.6667 79.7021 48.125C79.7021 48.3833 79.7896 48.6042 79.9646 48.7875C80.1396 48.9708 80.4896 49.1542 81.0146 49.3375C81.548 49.5208 82.3396 49.7458 83.3896 50.0125C84.4646 50.2875 85.323 50.6042 85.9646 50.9625C86.6146 51.3125 87.0813 51.7333 87.3646 52.225C87.6563 52.7167 87.8021 53.3125 87.8021 54.0125C87.8021 55.3708 87.3063 56.4375 86.3146 57.2125C85.3313 57.9875 83.9688 58.375 82.2271 58.375ZM97.4525 58C96.5609 58.1667 95.6859 58.2375 94.8275 58.2125C93.9775 58.1958 93.215 58.0417 92.54 57.75C91.865 57.45 91.3525 56.9792 91.0025 56.3375C90.6942 55.7542 90.5317 55.1583 90.515 54.55C90.4984 53.9417 90.49 53.2542 90.49 52.4875V40.75H93.49V52.3125C93.49 52.8542 93.4942 53.3292 93.5025 53.7375C93.5192 54.1458 93.6067 54.4792 93.765 54.7375C94.065 55.2375 94.5442 55.5167 95.2025 55.575C95.8609 55.6333 96.6109 55.6 97.4525 55.475V58ZM88.04 46.8625V44.5H97.4525V46.8625H88.04ZM103.13 58.375C102.155 58.375 101.33 58.1917 100.655 57.825C99.9805 57.45 99.468 56.9542 99.118 56.3375C98.7763 55.7208 98.6055 55.0417 98.6055 54.3C98.6055 53.65 98.7138 53.0667 98.9305 52.55C99.1471 52.025 99.4805 51.575 99.9305 51.2C100.38 50.8167 100.964 50.5042 101.68 50.2625C102.222 50.0875 102.855 49.9292 103.58 49.7875C104.314 49.6458 105.105 49.5167 105.955 49.4C106.814 49.275 107.71 49.1417 108.643 49L107.568 49.6125C107.576 48.6792 107.368 47.9917 106.943 47.55C106.518 47.1083 105.801 46.8875 104.793 46.8875C104.185 46.8875 103.597 47.0292 103.03 47.3125C102.464 47.5958 102.068 48.0833 101.843 48.775L99.093 47.9125C99.4263 46.7708 100.06 45.8542 100.993 45.1625C101.935 44.4708 103.201 44.125 104.793 44.125C105.993 44.125 107.047 44.3208 107.955 44.7125C108.872 45.1042 109.551 45.7458 109.993 46.6375C110.235 47.1125 110.38 47.6 110.43 48.1C110.48 48.5917 110.505 49.1292 110.505 49.7125V58H107.868V55.075L108.305 55.55C107.697 56.525 106.985 57.2417 106.168 57.7C105.36 58.15 104.347 58.375 103.13 58.375ZM103.73 55.975C104.414 55.975 104.997 55.8542 105.48 55.6125C105.964 55.3708 106.347 55.075 106.63 54.725C106.922 54.375 107.118 54.0458 107.218 53.7375C107.376 53.3542 107.464 52.9167 107.48 52.425C107.505 51.925 107.518 51.5208 107.518 51.2125L108.443 51.4875C107.535 51.6292 106.755 51.7542 106.105 51.8625C105.455 51.9708 104.897 52.075 104.43 52.175C103.964 52.2667 103.551 52.3708 103.193 52.4875C102.843 52.6125 102.547 52.7583 102.305 52.925C102.064 53.0917 101.876 53.2833 101.743 53.5C101.618 53.7167 101.555 53.9708 101.555 54.2625C101.555 54.5958 101.639 54.8917 101.805 55.15C101.972 55.4 102.214 55.6 102.53 55.75C102.855 55.9 103.255 55.975 103.73 55.975ZM112.76 58V44.5H115.422V47.7875L115.097 47.3625C115.264 46.9125 115.485 46.5042 115.76 46.1375C116.043 45.7625 116.381 45.4542 116.772 45.2125C117.106 44.9875 117.472 44.8125 117.872 44.6875C118.281 44.5542 118.697 44.475 119.122 44.45C119.547 44.4167 119.96 44.4333 120.36 44.5V47.3125C119.96 47.1958 119.497 47.1583 118.972 47.2C118.456 47.2417 117.989 47.3875 117.572 47.6375C117.156 47.8625 116.814 48.15 116.547 48.5C116.289 48.85 116.097 49.25 115.972 49.7C115.847 50.1417 115.785 50.6208 115.785 51.1375V58H112.76ZM129.658 58C128.766 58.1667 127.891 58.2375 127.033 58.2125C126.183 58.1958 125.42 58.0417 124.745 57.75C124.07 57.45 123.558 56.9792 123.208 56.3375C122.899 55.7542 122.737 55.1583 122.72 54.55C122.703 53.9417 122.695 53.2542 122.695 52.4875V40.75H125.695V52.3125C125.695 52.8542 125.699 53.3292 125.708 53.7375C125.724 54.1458 125.812 54.4792 125.97 54.7375C126.27 55.2375 126.749 55.5167 127.408 55.575C128.066 55.6333 128.816 55.6 129.658 55.475V58ZM120.245 46.8625V44.5H129.658V46.8625H120.245ZM137.014 58.375C135.648 58.375 134.448 58.0792 133.414 57.4875C132.381 56.8958 131.573 56.075 130.989 55.025C130.414 53.975 130.127 52.7667 130.127 51.4C130.127 49.925 130.41 48.6458 130.977 47.5625C131.544 46.4708 132.331 45.625 133.339 45.025C134.348 44.425 135.514 44.125 136.839 44.125C138.239 44.125 139.427 44.4542 140.402 45.1125C141.385 45.7625 142.114 46.6833 142.589 47.875C143.064 49.0667 143.244 50.4708 143.127 52.0875H140.139V50.9875C140.131 49.5208 139.873 48.45 139.364 47.775C138.856 47.1 138.056 46.7625 136.964 46.7625C135.731 46.7625 134.814 47.1458 134.214 47.9125C133.614 48.6708 133.314 49.7833 133.314 51.25C133.314 52.6167 133.614 53.675 134.214 54.425C134.814 55.175 135.689 55.55 136.839 55.55C137.581 55.55 138.219 55.3875 138.752 55.0625C139.294 54.7292 139.71 54.25 140.002 53.625L142.977 54.525C142.46 55.7417 141.66 56.6875 140.577 57.3625C139.502 58.0375 138.314 58.375 137.014 58.375ZM132.364 52.0875V49.8125H141.652V52.0875H132.364ZM150.329 58.375C149.087 58.375 148.004 58.0625 147.079 57.4375C146.154 56.8125 145.437 55.9625 144.929 54.8875C144.42 53.8125 144.166 52.6 144.166 51.25C144.166 49.8833 144.42 48.6667 144.929 47.6C145.445 46.525 146.174 45.6792 147.116 45.0625C148.058 44.4375 149.166 44.125 150.441 44.125C151.724 44.125 152.799 44.4375 153.666 45.0625C154.541 45.6792 155.204 46.525 155.654 47.6C156.104 48.675 156.329 49.8917 156.329 51.25C156.329 52.5917 156.104 53.8042 155.654 54.8875C155.204 55.9625 154.533 56.8125 153.641 57.4375C152.749 58.0625 151.645 58.375 150.329 58.375ZM150.791 55.675C151.599 55.675 152.249 55.4917 152.741 55.125C153.241 54.75 153.604 54.2292 153.829 53.5625C154.062 52.8958 154.179 52.125 154.179 51.25C154.179 50.3667 154.062 49.5958 153.829 48.9375C153.604 48.2708 153.249 47.7542 152.766 47.3875C152.283 47.0125 151.658 46.825 150.891 46.825C150.083 46.825 149.416 47.025 148.891 47.425C148.366 47.8167 147.979 48.35 147.729 49.025C147.479 49.6917 147.354 50.4333 147.354 51.25C147.354 52.075 147.474 52.825 147.716 53.5C147.966 54.1667 148.345 54.6958 148.854 55.0875C149.362 55.4792 150.008 55.675 150.791 55.675ZM154.179 58V48.525H153.804V40H156.841V58H154.179Z" fill="#2A2A32"/>
</svg>
